<?xml version="1.0" standalone="no"?>
<!DOCTYPE svg PUBLIC "-//W3C//DTD SVG 20010904//EN"
 "http://www.w3.org/TR/2001/REC-SVG-20010904/DTD/svg10.dtd">
<svg version="1.0" xmlns="http://www.w3.org/2000/svg"
 width="260.000000pt" height="260.000000pt" viewBox="0 0 260.000000 260.000000"
 preserveAspectRatio="xMidYMid meet">
<metadata>
Created by potrace 1.11, written by Peter Selinger 2001-2013
</metadata>
<g transform="translate(0.000000,260.000000) scale(0.100000,-0.100000)"
fill="#000000" stroke="none">
<path d="M0 1300 l0 -1300 1300 0 1300 0 0 1300 0 1300 -1300 0 -1300 0 0
-1300z m1175 739 c145 -20 306 -83 393 -153 l43 -34 -112 -129 c-62 -70 -114
-129 -115 -131 -1 -2 -17 11 -35 28 -53 49 -149 91 -234 103 -334 48 -577
-246 -500 -606 38 -182 167 -306 350 -338 81 -14 210 -6 278 17 l47 16 0 144
0 144 -145 0 -145 0 0 145 0 145 310 0 310 0 0 -401 0 -400 -54 -24 c-70 -31
-204 -71 -291 -87 -92 -17 -363 -16 -440 1 -399 88 -644 413 -621 821 7 137
27 214 83 330 39 80 59 108 137 185 95 95 186 151 304 190 130 42 291 55 437
34z m1115 -534 l0 -505 -180 0 -180 0 0 505 0 505 180 0 180 0 0 -505z m-83
-649 c67 -34 111 -104 111 -176 0 -143 -160 -242 -294 -181 -50 23 -81 53
-105 106 -61 132 51 283 202 272 31 -3 69 -12 86 -21z"/>
</g>
</svg>
